<?xml version="1.0" encoding="UTF-8"?><svg xmlns="http://www.w3.org/2000/svg" xmlns:xlink="http://www.w3.org/1999/xlink" height="334.6" preserveAspectRatio="xMidYMid meet" version="1.0" viewBox="19.1 32.7 412.0 334.6" width="412.0" zoomAndPan="magnify"><g><g id="change1_1"><path d="m731.97 207.13c-6.4106 7e-4 -13.78-0.01-22.281 0l-27.907 0.3103c-33.052 0.38-35.684 0.071-37.749 8.0945-0.74313 2.0746-2.197 4.954-3.2188 6.2657-1.7923 2.3008-1.875 7.8495-1.875 160.48 0 87.009 0.31952 158.51 0.6875 158.87s92.956 0.5451 205.75 0.4063l205.06-0.25 0.2813-152.72c0.2455-148.06 0.1884-152.76-1.625-154.5-1.0287-0.9857-2.4309-3.4774-3.0938-5.5313s-2.4023-4.6761-3.875-5.8437c-2.619-2.077-3.2547-2.1144-29.969-1.625-75.333 0.4671-148.74 1.1489-228.44 0.7031-2.7526-0.9083-3.916-2.088-5.8438-6.2657-3.5538-7.701-1.0317-8.4104-45.906-8.4048z" fill="#c2ab7a" transform="translate(-619.88 -174.37)"/></g><g id="change2_1"><path d="m792.83 240.58c-17.018 0-23.375 5.7326-29.982 19.395-28.486 0.3177-98.985 0.4485-104.08 0.4485s-18.406 8.2154-18.406 18.406v262.78h409.03v-282.63c0-10.191-8.2153-18.406-18.406-18.406z" fill="#d2bb89" transform="translate(-619.88 -174.37)"/></g></g></svg>